<svg xmlns="http://www.w3.org/2000/svg">
    <defs>
        <symbol id="icon_link" viewBox="0 0 24 24">
            <path fill="currentColor"
                d="M14.851 11.923c-.179-.641-.521-1.246-1.025-1.749-1.562-1.562-4.095-1.563-5.657 0l-4.998 4.998c-1.562 1.563-1.563 4.095 0 5.657 1.562 1.563 4.096 1.561 5.656 0l3.842-3.841.333.009c.404 0 .802-.04 1.189-.117l-4.657 4.656c-.975.976-2.255 1.464-3.535 1.464-1.28 0-2.56-.488-3.535-1.464-1.952-1.951-1.952-5.12 0-7.071l4.998-4.998c.975-.976 2.256-1.464 3.536-1.464 1.279 0 2.56.488 3.535 1.464.493.493.861 1.063 1.105 1.672l-.787.784zm-5.703.147c.178.643.521 1.25 1.026 1.756 1.562 1.563 4.096 1.561 5.656 0l4.999-4.998c1.563-1.562 1.563-4.095 0-5.657-1.562-1.562-4.095-1.563-5.657 0l-3.841 3.841-.333-.009c-.404 0-.802.04-1.189.117l4.656-4.656c.975-.976 2.256-1.464 3.536-1.464 1.279 0 2.56.488 3.535 1.464 1.951 1.951 1.951 5.119 0 7.071l-4.999 4.998c-.975.976-2.255 1.464-3.535 1.464-1.28 0-2.56-.488-3.535-1.464-.494-.495-.863-1.067-1.107-1.678l.788-.785z"></path>
        </symbol>
        <symbol id="icon_clients" viewBox="0 0 24 24">
            <path fill="currentColor" d="M.221 16.268a15.064 15.064 0 0 0 1.789 1.9C2.008 18.111 2 18.057 2 18a5.029 5.029 0 0 1 3.233-4.678 1 1 0 0 0 .175-1.784A2.968 2.968 0 0 1 4 9a2.988 2.988 0 0 1 5.022-2.2 5.951 5.951 0 0 1 2.022-.715 4.994 4.994 0 1 0-7.913 6.085 7.07 7.07 0 0 0-2.91 4.098zM23.779 16.268a7.07 7.07 0 0 0-2.91-4.1 4.994 4.994 0 1 0-7.913-6.086 5.949 5.949 0 0 1 2.022.715 2.993 2.993 0 1 1 3.614 4.74 1 1 0 0 0 .175 1.784A5.029 5.029 0 0 1 22 18c0 .057-.008.111-.01.167a15.065 15.065 0 0 0 1.789-1.899z" />
            <path fill="currentColor" d="M18.954 20.284a7.051 7.051 0 0 0-3.085-5.114A4.956 4.956 0 0 0 17 12a5 5 0 1 0-8.869 3.17 7.051 7.051 0 0 0-3.085 5.114 14.923 14.923 0 0 0 1.968.849C7.012 21.088 7 21.046 7 21a5.031 5.031 0 0 1 3.233-4.678 1 1 0 0 0 .175-1.785A2.964 2.964 0 0 1 9 12a3 3 0 1 1 6 0 2.964 2.964 0 0 1-1.408 2.537 1 1 0 0 0 .175 1.785A5.031 5.031 0 0 1 17 21c0 .046-.012.088-.013.133a14.919 14.919 0 0 0 1.967-.849z" />
        </symbol>
        <symbol id="icon_close" viewBox="0 0 48 48" >
            <path  fill="currentColor" d="M38 12.83l-2.83-2.83-11.17 11.17-11.17-11.17-2.83 2.83 11.17 11.17-11.17 11.17 2.83 2.83 11.17-11.17 11.17 11.17 2.83-2.83-11.17-11.17z" />
        </symbol>
    </defs>
</svg>